 <svg  version="1.0" xmlns="http://www.w3.org/2000/svg"  width="900.000000pt" height="900.000000pt" viewBox="0 0 900.000000 900.000000"  preserveAspectRatio="xMidYMid meet">  <g transform="translate(0.000000,900.000000) scale(0.100000,-0.100000)" fill="#000000" stroke="none"> <path d="M4200 8079 c-215 -27 -351 -48 -500 -77 -58 -11 -125 -23 -150 -27 -25 -3 -61 -12 -80 -19 -60 -22 -137 -46 -149 -46 -7 0 -38 -12 -69 -26 -31 -14 -85 -37 -120 -50 -35 -13 -84 -35 -110 -48 -26 -13 -74 -32 -107 -41 -49 -14 -145 -63 -225 -115 -8 -6 -24 -14 -35 -19 -11 -5 -45 -26 -75 -46 -30 -19 -66 -38 -80 -42 -14 -3 -41 -19 -61 -34 -20 -16 -40 -29 -44 -29 -4 0 -27 -17 -50 -37 -70 -62 -118 -99 -153 -117 -18 -9 -64 -45 -101 -79 -37 -34 -87 -78 -110 -97 -50 -42 -304 -298 -310 -312 -1 -5 -14 -21 -28 -36 -14 -15 -42 -47 -62 -72 -20 -25 -52 -61 -72 -81 -20 -20 -54 -70 -77 -110 -22 -41 -55 -90 -73 -109 -40 -43 -91 -121 -124 -192 -13 -29 -52 -102 -85 -163 -33 -60 -72 -133 -86 -161 l-27 -51 -81 -7 c-45 -3 -199 -9 -344 -12 -159 -4 -265 -11 -269 -17 -6 -11 29 -44 118 -112 28 -22 64 -57 79 -77 15 -21 54 -59 86 -85 33 -26 100 -89 149 -139 50 -51 109 -104 132 -118 23 -14 60 -50 83 -79 41 -54 108 -117 163 -150 29 -18 45 -34 86 -87 l19 -25 749 3 c411 1 820 7 908 13 241 15 1171 17 1220 2 142 -41 190 -59 231 -87 25 -17 53 -36 63 -41 26 -15 49 -40 85 -93 81 -119 96 -181 96 -400 0 -248 -26 -320 -161 -444 -87 -79 -107 -92 -194 -124 -146 -54 -130 -52 -660 -64 -275 -5 -772 -15 -1105 -20 -333 -5 -675 -12 -761 -15 -173 -6 -172 -6 -184 58 -13 70 3 67 -396 67 -329 0 -360 -1 -366 -17 -7 -18 21 -229 37 -279 5 -16 16 -55 25 -86 28 -108 48 -173 55 -183 4 -5 19 -49 34 -97 15 -49 31 -90 36 -93 4 -3 16 -37 25 -77 18 -76 129 -312 191 -405 19 -28 34 -56 34 -61 0 -21 41 -101 71 -138 28 -35 85 -119 114 -166 45 -77 156 -219 210 -273 28 -27 61 -66 73 -85 11 -19 45 -58 74 -86 29 -28 103 -101 165 -162 61 -61 129 -120 150 -131 21 -11 52 -35 68 -52 36 -38 222 -179 237 -179 5 0 27 -12 47 -28 42 -31 70 -49 91 -59 8 -3 31 -19 50 -33 46 -37 138 -90 153 -90 7 0 68 -27 137 -61 253 -123 288 -138 385 -164 101 -27 156 -43 255 -74 145 -45 262 -72 373 -87 67 -9 62 9 -22 87 -119 110 -144 134 -219 210 -40 41 -88 90 -107 109 -20 19 -71 71 -114 115 -43 44 -96 96 -117 116 -21 20 -72 69 -112 110 -40 41 -88 90 -107 109 -20 19 -71 71 -115 115 -44 44 -99 99 -122 122 -48 46 -151 149 -215 215 -141 143 -195 197 -231 226 -22 18 -48 49 -57 69 -10 21 -53 72 -95 114 -43 42 -90 99 -106 125 -15 27 -46 69 -69 94 -51 56 -127 169 -120 179 6 10 212 19 595 27 l295 6 525 -526 c316 -317 525 -534 525 -545 0 -10 7 -27 16 -37 9 -11 22 -29 28 -41 22 -43 114 -145 149 -166 19 -11 47 -40 63 -65 34 -54 100 -125 162 -175 26 -21 63 -62 81 -90 40 -61 85 -109 123 -132 26 -16 103 -105 103 -119 0 -4 68 -75 151 -158 106 -105 165 -156 198 -171 25 -11 64 -34 87 -51 86 -66 247 -135 364 -157 193 -37 628 -18 719 30 27 15 26 24 -1 54 -108 113 -132 137 -138 137 -4 0 -31 31 -59 70 -29 38 -82 96 -117 127 -66 58 -124 132 -124 157 0 13 -42 52 -126 121 -21 16 -44 42 -53 56 -24 39 -92 112 -129 138 -45 32 -75 62 -100 103 -11 18 -66 76 -121 128 -56 52 -101 101 -101 107 0 7 -46 59 -103 115 -57 57 -112 117 -123 133 -10 17 -35 44 -54 60 -63 55 -151 149 -180 195 -16 25 -42 53 -58 62 -16 10 -44 34 -60 53 -26 29 -36 34 -60 29 -25 -5 -33 -1 -52 26 -20 28 -21 34 -9 57 12 23 11 27 -11 44 -38 29 -57 48 -132 134 -39 44 -115 126 -169 183 -55 56 -99 111 -99 121 0 16 14 19 163 25 231 10 353 44 537 150 47 27 58 33 127 69 23 12 90 67 148 122 92 85 132 133 190 224 6 9 28 43 50 76 57 87 95 162 112 225 28 104 44 165 53 205 5 22 16 69 24 105 44 192 51 447 16 629 -21 105 -26 125 -80 331 -30 111 -110 285 -157 342 -40 48 -67 88 -92 135 -11 23 -38 54 -58 70 -21 15 -74 62 -118 105 -80 77 -146 128 -167 128 -6 0 -47 18 -92 40 -95 46 -224 95 -316 118 -85 22 -596 23 -1415 3 -319 -8 -665 -15 -770 -15 -188 -1 -190 -1 -190 21 0 11 12 36 28 55 15 18 54 71 87 118 32 47 68 96 79 110 12 14 46 57 77 95 31 39 82 95 113 126 31 31 85 86 121 123 36 36 83 79 105 94 22 15 52 38 66 52 14 14 39 35 55 47 147 112 182 137 208 148 31 13 90 48 196 116 108 69 154 90 252 120 37 12 71 25 74 30 3 5 12 9 21 9 9 0 45 14 80 30 34 17 72 30 82 30 11 0 22 4 25 9 3 5 23 12 43 16 21 4 52 13 68 20 17 7 41 15 55 18 14 3 72 15 129 26 301 61 924 61 1226 0 55 -12 111 -23 125 -26 14 -3 39 -11 55 -18 17 -7 47 -16 68 -20 20 -4 40 -11 43 -16 3 -5 13 -9 23 -9 16 0 137 -47 184 -71 10 -5 52 -21 95 -35 42 -13 93 -33 112 -44 19 -10 45 -23 57 -29 12 -5 59 -35 104 -66 46 -31 107 -67 137 -81 53 -25 186 -121 273 -198 26 -23 64 -53 85 -69 38 -26 69 -57 227 -218 63 -65 166 -196 317 -404 44 -60 51 -73 91 -160 18 -38 42 -83 54 -100 21 -28 95 -179 95 -192 0 -4 6 -14 14 -22 8 -9 23 -52 34 -96 12 -44 30 -105 42 -135 12 -30 30 -89 41 -130 11 -41 26 -93 33 -115 8 -22 21 -85 30 -140 9 -55 24 -134 34 -175 13 -61 16 -132 16 -390 0 -223 -4 -328 -13 -360 -7 -25 -17 -74 -21 -110 -5 -36 -16 -94 -25 -130 -45 -178 -54 -208 -69 -250 -9 -25 -26 -74 -37 -110 -63 -201 -75 -232 -156 -380 -19 -36 -53 -99 -75 -140 -61 -116 -118 -203 -176 -268 -30 -33 -63 -79 -74 -101 -11 -22 -67 -88 -124 -145 -57 -58 -104 -110 -104 -116 0 -12 -38 -47 -104 -94 -23 -16 -66 -55 -97 -85 -73 -74 -126 -115 -172 -134 -20 -9 -59 -34 -85 -57 -44 -38 -64 -52 -117 -80 -54 -28 -80 -48 -83 -62 -2 -9 107 -126 259 -278 l262 -263 31 18 c17 10 46 26 64 36 41 22 167 115 247 183 33 28 78 64 100 79 22 15 67 54 100 88 60 61 73 73 186 179 33 30 70 73 83 95 13 22 41 56 63 75 48 44 105 118 218 285 49 72 103 148 120 170 18 22 42 65 53 97 12 31 36 80 55 110 31 48 61 105 139 263 14 28 33 82 42 120 10 39 22 75 26 80 17 21 109 299 141 430 22 88 50 256 60 370 6 66 14 161 19 210 11 124 11 368 0 495 -5 58 -15 169 -20 247 -10 125 -26 234 -60 403 -5 25 -20 79 -34 120 -14 41 -26 83 -26 92 0 17 -20 69 -46 120 -8 14 -14 33 -14 42 0 8 -6 30 -14 48 -8 18 -22 60 -31 93 -23 83 -51 144 -135 300 -24 44 -71 133 -105 199 -34 65 -82 143 -106 174 -58 73 -74 97 -103 155 -13 26 -50 76 -82 110 -33 34 -81 91 -109 126 -62 79 -297 318 -385 392 -35 30 -82 71 -104 93 -21 21 -51 43 -66 50 -29 12 -69 42 -138 102 -57 49 -145 106 -192 124 -19 7 -43 20 -53 28 -17 15 -49 35 -77 48 -8 4 -59 34 -113 65 -53 32 -123 66 -155 75 -31 9 -84 29 -117 45 -182 86 -408 165 -525 184 -47 8 -119 22 -160 31 -41 9 -100 20 -130 24 -30 4 -77 12 -105 18 -142 32 -662 51 -825 31z"/> <path d="M3705 1553 c-25 -32 -45 -62 -45 -66 0 -5 12 -21 28 -36 37 -37 236 -251 307 -331 32 -36 81 -88 109 -117 28 -28 80 -85 116 -125 36 -41 82 -86 103 -102 21 -16 42 -38 47 -50 11 -29 127 -157 162 -178 16 -10 42 -39 58 -64 36 -57 124 -143 165 -160 16 -7 46 -29 65 -49 58 -61 239 -162 333 -185 45 -12 100 -28 122 -36 148 -58 496 -68 670 -20 253 71 395 125 395 150 0 11 -71 90 -101 114 -14 10 -27 8 -75 -12 -33 -14 -116 -39 -186 -56 -110 -26 -146 -30 -264 -30 -85 0 -163 6 -208 15 -160 35 -212 49 -236 60 -39 20 -101 42 -151 55 -26 7 -68 27 -95 46 -26 19 -51 34 -56 34 -4 0 -17 8 -27 17 -11 10 -52 43 -90 73 -73 57 -234 208 -248 234 -4 8 -46 54 -93 103 -47 49 -130 138 -185 197 -55 60 -111 120 -126 135 -14 14 -70 76 -125 136 -56 61 -124 135 -153 165 -29 30 -68 74 -88 98 -50 59 -71 56 -128 -15z"/> </g> </svg> 