<?xml version="1.0" standalone="no"?>
<!DOCTYPE svg PUBLIC "-//W3C//DTD SVG 20010904//EN"
 "http://www.w3.org/TR/2001/REC-SVG-20010904/DTD/svg10.dtd">
<svg version="1.0" xmlns="http://www.w3.org/2000/svg"
 width="900.000000pt" height="900.000000pt" viewBox="0 0 900.000000 900.000000"
 preserveAspectRatio="xMidYMid meet">
<metadata>
Created by potrace 1.10, written by Peter Selinger 2001-2011
</metadata>
<g transform="translate(0.000000,900.000000) scale(0.100000,-0.100000)"
fill="#000000" stroke="none">
<path d="M4160 8198 c-122 -10 -243 -28 -390 -58 -58 -11 -130 -25 -160 -31
-142 -25 -382 -94 -447 -127 -34 -18 -168 -75 -233 -99 -95 -36 -331 -159
-392 -204 -29 -22 -64 -43 -78 -46 -34 -9 -89 -41 -125 -73 -16 -15 -41 -33
-55 -40 -14 -7 -48 -33 -76 -57 -28 -23 -55 -43 -60 -43 -13 0 -254 -210 -345
-300 -30 -30 -71 -69 -91 -85 -19 -17 -47 -49 -61 -72 -15 -23 -34 -46 -44
-51 -9 -6 -38 -35 -63 -65 -157 -192 -212 -262 -236 -304 -16 -27 -42 -66 -59
-88 -42 -54 -81 -118 -150 -250 -85 -161 -123 -215 -164 -233 -28 -12 -92 -17
-281 -23 -147 -4 -257 -11 -274 -18 -47 -19 -108 -72 -122 -108 -13 -30 -12
-37 5 -71 23 -45 274 -302 315 -322 16 -8 31 -22 33 -30 2 -9 61 -67 130 -130
69 -63 162 -151 207 -195 92 -92 190 -177 257 -224 70 -49 130 -55 529 -46
190 4 469 9 620 11 151 2 347 5 435 8 367 13 1222 17 1291 7 39 -6 109 -25
155 -43 108 -41 194 -120 230 -213 22 -55 24 -74 24 -240 l0 -180 -32 -65
c-24 -49 -48 -78 -96 -118 -76 -63 -99 -76 -192 -109 -83 -28 -259 -40 -660
-42 -137 -1 -495 -7 -795 -14 -300 -6 -660 -12 -800 -12 l-255 0 -40 29 c-22
17 -47 37 -55 47 -31 35 -77 39 -402 39 -248 0 -326 -3 -351 -14 -45 -19 -123
-100 -137 -141 -24 -74 22 -282 150 -664 85 -256 115 -326 220 -519 5 -9 32
-61 59 -115 53 -104 148 -254 174 -276 9 -7 27 -35 42 -63 14 -27 42 -71 61
-96 19 -26 44 -62 55 -79 12 -18 24 -33 28 -33 5 0 41 -42 82 -92 114 -143
367 -392 487 -480 32 -23 77 -60 102 -82 55 -49 129 -102 192 -137 25 -14 61
-38 80 -53 51 -42 150 -102 182 -110 16 -4 38 -18 48 -32 11 -13 24 -24 29
-24 10 0 92 -37 244 -110 118 -57 244 -110 260 -110 8 0 63 -16 122 -35 299
-96 462 -135 565 -135 44 0 62 5 85 23 15 13 37 27 48 32 17 7 15 9 -15 15
-19 3 -44 11 -55 18 -11 6 -65 21 -120 32 -55 12 -116 28 -135 35 -19 8 -53
16 -75 20 -39 6 -81 18 -120 36 -23 11 -112 36 -170 49 -97 21 -145 36 -157
48 -6 6 -20 12 -29 12 -19 0 -75 28 -97 48 -7 6 -19 12 -25 12 -11 0 -126 52
-157 71 -34 21 -103 49 -120 49 -10 0 -22 5 -25 11 -4 5 -17 14 -28 19 -12 6
-57 34 -100 65 -42 30 -79 55 -82 55 -3 0 -24 13 -47 30 -22 16 -45 30 -50 30
-15 0 -247 179 -257 199 -6 10 -25 24 -43 32 -28 11 -127 95 -162 138 -11 14
-44 47 -145 144 -29 29 -66 70 -80 92 -15 22 -52 65 -82 95 -49 49 -127 147
-154 192 -5 10 -34 51 -63 92 -28 42 -52 80 -52 86 0 5 -4 10 -8 10 -17 0 -82
101 -100 155 -11 31 -24 61 -31 68 -6 6 -11 16 -11 23 0 6 -6 17 -14 23 -8 7
-38 58 -66 114 -28 56 -61 120 -73 142 -13 22 -31 77 -41 123 -11 45 -25 87
-33 93 -7 6 -13 20 -13 29 0 10 -6 31 -14 47 -21 43 -57 151 -73 218 -8 33
-19 68 -24 77 -5 10 -9 27 -9 39 0 11 -5 30 -12 42 -12 22 -33 141 -44 247
l-6 55 383 -2 384 -2 8 -58 c11 -80 19 -86 98 -74 35 5 336 15 669 21 1844 32
1772 30 1830 47 164 47 212 72 309 163 97 90 118 122 146 232 14 55 17 98 13
255 l-4 188 -37 76 c-21 42 -47 85 -57 94 -11 10 -20 22 -20 28 0 12 -42 57
-54 57 -5 0 -25 12 -45 28 -60 45 -78 53 -256 105 -49 15 -993 13 -1185 -2
-69 -6 -480 -11 -913 -13 l-788 -3 -17 29 c-22 38 -59 74 -97 93 -16 9 -34 21
-40 27 -6 6 -27 25 -46 41 -19 17 -43 44 -53 60 -29 44 -69 85 -85 85 -7 0
-61 49 -120 109 -58 59 -119 115 -136 124 -16 9 -50 39 -75 68 -58 68 -130
136 -167 157 -75 45 -92 58 -97 77 -9 32 8 38 83 26 52 -8 137 -8 313 0 134 6
259 8 279 5 41 -6 48 -1 69 54 8 19 24 49 36 67 12 18 40 69 63 115 23 46 46
90 51 98 6 8 20 35 31 60 31 68 42 85 95 152 64 80 79 103 109 163 13 28 49
74 80 103 30 29 55 57 55 61 0 18 328 365 397 419 26 21 83 71 126 110 42 40
83 72 91 72 8 0 21 6 28 13 7 7 39 33 71 57 32 24 62 51 68 62 5 10 16 18 24
18 7 0 20 6 28 14 17 18 88 56 102 56 6 0 39 18 72 40 34 22 80 50 103 62 49
27 63 35 115 69 44 28 127 59 159 59 12 0 41 14 66 30 25 16 50 30 57 30 7 0
29 7 50 16 21 9 53 22 71 30 81 35 99 42 132 54 19 6 51 15 70 20 19 4 46 12
60 18 14 6 54 16 90 21 36 6 103 18 150 26 47 9 110 20 140 24 30 5 66 13 80
19 117 48 1012 48 1120 0 14 -7 52 -15 85 -19 33 -4 94 -14 135 -23 41 -8 109
-20 150 -26 41 -7 89 -17 105 -25 43 -18 94 -35 138 -46 21 -5 45 -13 55 -18
16 -8 37 -18 125 -55 21 -9 42 -16 47 -16 5 0 32 -13 58 -30 27 -16 60 -30 73
-30 34 -1 126 -40 181 -78 26 -18 57 -37 70 -42 35 -16 114 -63 135 -81 10 -9
36 -23 58 -30 22 -7 56 -26 76 -41 20 -15 41 -28 45 -28 5 0 31 -21 57 -45 26
-25 51 -45 56 -45 4 0 18 -12 32 -26 13 -14 41 -33 62 -41 20 -8 45 -25 55
-37 14 -19 44 -45 174 -155 81 -69 348 -356 372 -399 5 -10 35 -43 67 -75 33
-32 59 -62 59 -67 0 -24 43 -90 138 -214 23 -30 42 -60 42 -65 0 -5 6 -16 13
-23 7 -7 21 -33 32 -58 10 -25 24 -52 30 -60 6 -8 28 -51 49 -95 22 -44 50
-94 62 -112 13 -17 24 -36 24 -42 0 -5 6 -22 14 -38 38 -79 63 -144 76 -203
11 -50 54 -163 81 -212 5 -10 9 -31 9 -47 0 -17 4 -32 8 -35 5 -3 14 -30 21
-60 7 -31 17 -58 22 -61 5 -4 9 -21 9 -38 0 -18 7 -50 14 -72 18 -52 35 -173
47 -339 5 -72 14 -178 19 -236 11 -132 11 -417 -1 -535 -5 -49 -13 -142 -19
-205 -12 -144 -34 -296 -48 -335 -20 -57 -42 -137 -42 -155 0 -10 -6 -31 -14
-47 -25 -51 -61 -150 -73 -203 -3 -14 -11 -32 -18 -40 -7 -8 -22 -51 -33 -95
-20 -79 -118 -285 -186 -390 -18 -27 -39 -70 -47 -95 -7 -25 -35 -73 -61 -107
-27 -34 -48 -65 -48 -69 0 -3 -13 -23 -30 -44 -16 -21 -30 -43 -30 -49 0 -6
-4 -11 -10 -11 -5 0 -17 -14 -25 -30 -25 -49 -144 -201 -197 -251 -26 -25 -48
-50 -48 -56 0 -5 -14 -25 -31 -44 -17 -19 -43 -48 -59 -66 -15 -17 -46 -43
-68 -57 -22 -13 -49 -40 -61 -59 -25 -41 -98 -107 -166 -152 -27 -18 -70 -54
-95 -79 -24 -25 -48 -46 -53 -46 -5 0 -23 -11 -41 -26 -87 -70 -119 -94 -128
-94 -5 0 -30 -16 -55 -35 -25 -19 -50 -35 -55 -35 -6 0 -31 23 -56 52 -57 63
-321 327 -420 421 -63 59 -71 70 -62 87 6 11 18 20 27 20 22 0 159 85 211 131
24 21 57 41 73 44 17 4 33 13 36 21 3 8 11 14 17 14 7 0 53 39 102 87 49 49
113 104 142 123 29 19 60 49 68 67 9 17 41 55 71 85 107 101 133 131 154 175
12 25 46 71 75 103 30 32 54 60 54 64 0 3 19 34 43 68 23 35 51 83 62 108 11
25 22 47 25 50 4 3 24 40 45 83 22 43 45 83 52 89 7 6 13 16 13 23 0 6 10 32
23 56 23 43 49 117 82 234 10 33 23 76 31 95 27 69 44 125 44 146 0 12 7 37
15 56 14 36 31 118 45 218 4 30 13 69 20 85 10 23 13 109 14 360 0 279 -2 338
-16 385 -9 30 -19 75 -22 100 -11 87 -33 205 -43 230 -16 37 -43 134 -43 152
0 9 -13 46 -29 84 -16 38 -37 103 -46 144 -10 41 -22 80 -27 87 -16 20 -48 87
-48 99 0 6 -7 17 -15 24 -8 7 -15 20 -15 30 0 9 -12 35 -27 57 -54 76 -93 153
-93 180 0 8 -18 35 -40 60 -22 26 -60 77 -85 114 -25 38 -58 83 -73 101 -16
18 -33 41 -38 50 -17 31 -120 145 -183 201 -17 16 -31 34 -32 40 0 13 -147
145 -179 162 -10 5 -38 28 -61 50 -69 64 -221 178 -254 190 -16 6 -49 23 -72
38 -24 15 -45 27 -49 27 -3 0 -23 13 -43 29 -72 56 -168 105 -266 135 -33 10
-72 25 -87 32 -14 8 -31 14 -37 14 -6 0 -39 13 -73 29 -35 15 -90 36 -123 45
-33 9 -73 23 -90 31 -16 7 -43 16 -60 19 -16 3 -64 12 -105 21 -41 9 -124 20
-185 26 -60 5 -153 15 -205 20 -181 20 -641 -2 -840 -41 -58 -12 -118 -23
-135 -26 -16 -3 -43 -12 -60 -19 -16 -8 -57 -22 -90 -31 -33 -9 -88 -30 -123
-45 -34 -16 -67 -29 -73 -29 -6 0 -23 -6 -37 -14 -15 -7 -54 -22 -87 -31 -55
-17 -96 -34 -135 -56 -8 -5 -26 -14 -40 -20 -14 -6 -48 -28 -77 -50 -29 -21
-55 -39 -58 -39 -3 0 -24 -12 -48 -27 -23 -15 -55 -32 -72 -38 -34 -13 -192
-132 -257 -194 -24 -22 -47 -41 -53 -41 -19 -1 -175 -147 -194 -182 -7 -14
-24 -31 -36 -36 -13 -6 -58 -53 -100 -104 -41 -51 -87 -106 -100 -122 -14 -16
-25 -30 -25 -32 0 -9 -123 -172 -155 -206 -22 -23 -35 -47 -35 -64 0 -24 2
-26 33 -20 65 12 1336 40 1812 40 501 0 579 -5 630 -40 11 -8 29 -14 42 -14
12 0 25 -4 28 -10 3 -5 14 -10 23 -10 10 0 35 -9 57 -20 22 -11 44 -20 49 -20
5 0 17 -6 25 -14 9 -7 39 -21 66 -32 74 -26 110 -52 208 -145 48 -46 103 -97
122 -112 19 -16 43 -45 52 -65 20 -44 45 -82 94 -143 49 -63 125 -222 144
-304 9 -38 23 -90 30 -115 61 -201 69 -263 68 -515 0 -229 -14 -374 -39 -412
-8 -12 -14 -38 -14 -57 0 -19 -4 -37 -9 -40 -5 -3 -12 -26 -16 -51 -3 -25 -13
-61 -21 -80 -8 -19 -14 -45 -14 -58 0 -14 -7 -30 -15 -37 -8 -7 -15 -19 -15
-27 0 -8 -26 -54 -57 -101 -32 -48 -60 -91 -62 -97 -2 -5 -17 -26 -32 -46 -16
-20 -29 -42 -29 -47 0 -17 -248 -246 -278 -257 -15 -6 -46 -23 -69 -38 -24
-15 -47 -27 -51 -27 -5 0 -27 -13 -49 -29 -38 -27 -154 -75 -213 -88 -14 -3
-30 -10 -37 -15 -18 -14 -258 -30 -345 -23 -43 3 -82 4 -88 0 -14 -9 4 -41 43
-75 71 -63 187 -179 187 -187 0 -11 167 -182 200 -205 l25 -18 -23 -19 -22
-19 21 -36 c20 -35 51 -47 64 -26 11 18 30 10 50 -21 11 -16 40 -45 65 -64 25
-19 52 -46 60 -62 8 -15 37 -52 65 -81 27 -29 51 -57 53 -62 2 -5 19 -19 38
-30 19 -12 59 -55 89 -95 31 -40 72 -87 93 -104 54 -44 99 -92 114 -120 12
-23 54 -67 162 -171 26 -25 57 -60 68 -79 24 -39 76 -91 90 -91 13 0 138 -129
138 -142 0 -13 66 -78 105 -102 46 -30 75 -59 75 -79 0 -26 76 -124 109 -141
15 -8 35 -25 44 -38 9 -13 36 -45 62 -73 25 -27 48 -60 51 -72 3 -12 14 -25
24 -28 10 -3 53 -39 95 -80 41 -41 80 -75 85 -75 17 0 11 -25 -10 -37 -46 -30
-244 -53 -442 -53 -222 0 -356 19 -453 65 -122 57 -181 88 -215 115 -19 15
-55 36 -80 47 -45 20 -140 97 -140 114 0 10 -85 93 -154 151 -24 21 -54 57
-66 80 -25 47 -47 72 -100 109 -45 31 -73 61 -115 126 -19 28 -56 69 -82 90
-64 52 -134 128 -152 164 -7 17 -28 40 -44 52 -53 38 -146 137 -173 183 -14
24 -35 49 -45 55 -16 8 -17 13 -6 30 10 16 9 21 -2 28 -13 8 -535 528 -900
895 l-153 155 -67 -5 c-129 -8 -666 -26 -736 -24 -90 3 -95 2 -95 -10 0 -13
84 -120 138 -176 21 -23 49 -62 61 -86 21 -45 61 -91 139 -160 23 -21 53 -60
67 -87 14 -28 42 -63 62 -78 21 -15 73 -64 115 -108 43 -44 91 -93 107 -109
16 -16 65 -64 109 -108 44 -44 94 -95 111 -112 17 -17 72 -71 121 -121 49 -49
100 -101 114 -114 13 -13 60 -60 105 -105 45 -44 94 -94 110 -110 16 -16 67
-67 114 -113 100 -101 122 -122 218 -218 41 -40 88 -87 105 -106 16 -19 74
-70 127 -113 53 -43 97 -83 97 -88 0 -11 27 -10 50 2 15 8 17 15 10 40 -13 45
-43 80 -270 308 -113 114 -214 218 -225 232 -11 14 -112 115 -225 225 -113
109 -217 216 -233 237 -15 21 -31 38 -37 38 -10 0 -486 476 -566 567 -173 195
-222 256 -234 293 -11 32 -11 43 -1 53 9 9 86 13 276 15 261 4 265 3 302 -19
45 -28 281 -247 289 -269 3 -8 32 -37 64 -65 33 -27 60 -54 60 -60 1 -5 26
-30 56 -55 30 -25 62 -54 72 -65 16 -19 95 -96 137 -134 11 -10 35 -37 53 -60
19 -23 50 -52 71 -65 37 -24 91 -108 91 -143 0 -10 -18 -37 -41 -58 -22 -22
-54 -64 -71 -93 l-30 -53 35 -72 c23 -46 65 -103 114 -156 43 -47 132 -143
198 -214 66 -72 135 -148 154 -171 19 -23 78 -86 131 -141 52 -55 156 -165
230 -245 166 -178 248 -260 262 -260 6 0 37 -25 70 -55 33 -31 76 -64 96 -76
20 -11 52 -30 69 -42 18 -12 49 -32 68 -45 l36 -22 637 0 637 0 24 25 c13 14
27 25 32 25 13 0 67 83 82 127 12 36 12 44 -4 75 -10 19 -48 64 -84 99 -37 35
-84 89 -105 119 -21 30 -77 96 -124 145 -48 50 -112 121 -143 158 -31 37 -64
72 -74 77 -10 6 -33 34 -53 63 -34 50 -178 207 -357 386 -47 47 -165 173 -264
278 -98 106 -181 193 -184 193 -4 0 -21 19 -39 43 -37 47 -294 320 -418 442
-45 44 -105 109 -135 145 -30 36 -83 96 -117 135 -72 78 -99 122 -84 137 10
10 32 16 172 49 47 11 108 31 137 45 28 13 55 24 58 24 4 0 21 11 38 24 18 14
63 39 101 56 38 16 83 42 100 56 17 14 60 48 97 77 203 162 420 491 473 717 8
36 29 117 47 180 30 112 31 123 36 374 6 276 3 312 -44 496 -14 52 -31 123
-38 157 -26 118 -85 271 -110 285 -7 4 -16 19 -19 33 -4 14 -26 54 -49 88 -23
34 -52 78 -65 97 -48 76 -92 124 -225 244 -118 107 -151 130 -240 173 -107 52
-175 79 -342 135 l-100 33 -440 1 c-242 0 -559 -2 -705 -6 -146 -4 -418 -9
-605 -11 l-340 -4 1 32 c3 51 84 153 280 348 129 130 212 203 293 260 117 83
130 91 252 164 41 24 93 57 115 72 23 16 77 42 120 59 44 17 86 35 94 40 27
18 101 50 116 50 7 0 42 11 76 24 177 69 262 95 358 109 194 29 304 39 520 44
201 5 253 3 580 -27 90 -8 272 -52 386 -93 164 -60 240 -89 267 -102 15 -7 51
-21 80 -29 28 -9 77 -30 108 -48 187 -109 309 -185 341 -212 20 -17 55 -44 78
-61 66 -49 189 -154 278 -240 79 -76 252 -272 276 -313 24 -42 71 -110 112
-162 66 -86 241 -428 280 -549 8 -25 19 -55 24 -66 5 -11 21 -63 35 -115 15
-52 35 -124 45 -160 17 -60 30 -112 45 -185 33 -152 54 -577 36 -720 -6 -49
-17 -128 -23 -175 -10 -80 -33 -197 -58 -300 -14 -60 -88 -287 -106 -327 -8
-17 -14 -37 -14 -45 0 -7 -16 -49 -36 -93 -20 -44 -40 -95 -45 -112 -6 -18
-14 -33 -19 -33 -10 0 -41 -52 -105 -178 -26 -51 -62 -110 -80 -132 -18 -22
-44 -57 -56 -77 -59 -96 -304 -363 -438 -476 -47 -40 -104 -91 -127 -115 -23
-23 -49 -42 -57 -42 -8 0 -37 -17 -64 -38 -26 -21 -73 -54 -103 -74 -103 -68
-180 -157 -180 -208 0 -48 115 -209 186 -258 24 -18 52 -45 62 -62 20 -32 188
-193 257 -246 94 -71 153 -92 172 -61 4 8 31 22 58 32 57 21 210 117 223 140
4 9 37 37 73 63 147 107 408 355 528 500 42 51 95 117 119 145 38 47 70 91
172 241 19 28 50 72 68 96 19 25 52 83 75 130 22 47 52 103 67 125 43 65 147
284 170 360 12 39 32 95 46 126 13 31 24 65 24 75 0 11 9 37 19 59 18 41 62
184 101 330 12 44 25 132 30 195 5 63 13 138 18 165 33 172 39 650 11 845 -5
36 -13 121 -18 190 -5 69 -21 181 -36 250 -23 109 -119 428 -159 530 -8 19
-20 55 -26 80 -18 64 -96 229 -213 454 -82 155 -329 522 -382 566 -10 8 -28
31 -40 50 -77 120 -502 523 -675 640 -28 19 -75 53 -103 75 -65 51 -203 135
-221 135 -8 0 -16 3 -18 8 -6 13 -63 49 -148 94 -46 23 -111 57 -144 75 -34
18 -88 39 -120 47 -33 9 -67 23 -76 31 -9 8 -22 15 -29 15 -7 0 -36 11 -64 24
-235 107 -324 131 -757 207 -255 45 -671 61 -950 37z m-340 -6610 c26 -35 77
-94 125 -143 16 -16 74 -79 128 -139 109 -119 175 -190 252 -271 28 -29 77
-82 110 -119 207 -231 460 -476 493 -476 5 0 12 -7 16 -15 3 -8 14 -15 25 -15
11 0 24 -6 28 -13 17 -26 117 -76 154 -77 14 0 34 -7 45 -15 10 -8 29 -15 41
-15 12 0 24 -4 27 -9 9 -13 97 -40 168 -50 34 -5 76 -14 91 -20 42 -16 329
-14 391 3 28 8 85 22 126 31 80 18 160 51 160 66 0 22 30 4 93 -57 38 -36 67
-70 65 -75 -7 -22 -237 -106 -353 -130 -22 -4 -65 -13 -95 -19 -37 -8 -139
-10 -310 -7 -242 4 -282 8 -341 38 -9 4 -34 11 -55 14 -68 12 -149 37 -165 51
-8 8 -21 14 -27 14 -7 0 -12 4 -12 9 0 5 -12 14 -27 20 -51 20 -135 81 -171
124 -13 15 -32 27 -43 27 -22 0 -159 126 -159 146 0 7 -18 30 -39 51 -130 126
-172 171 -186 200 -8 18 -30 42 -48 55 -37 26 -127 117 -165 167 -14 18 -66
74 -115 125 -49 50 -100 108 -114 129 -14 20 -29 37 -33 37 -5 0 -28 21 -52
46 -107 116 -177 184 -187 184 -17 0 -13 44 7 61 9 9 32 34 51 57 42 51 69 54
101 10z"/>
</g>
</svg>
